<?xml version="1.0" encoding="UTF-8" standalone="no"?>
<!DOCTYPE svg PUBLIC "-//W3C//DTD SVG 1.1//EN" "http://www.w3.org/Graphics/SVG/1.1/DTD/svg11.dtd">
<svg version="1.1" xmlns="http://www.w3.org/2000/svg" xmlns:xlink="http://www.w3.org/1999/xlink" preserveAspectRatio="xMidYMid meet" viewBox="0 0 640 640" width="620" height="620"><defs><path d="M130 70C130 103.11 103.11 130 70 130C36.89 130 10 103.11 10 70C10 36.89 36.89 10 70 10C103.11 10 130 36.89 130 70Z" id="a1ODPc8r1"></path><path d="M570 570L70 70" id="b1nluIKACX"></path><path d="M70 570L570 70" id="ecGlff8Ra"></path><path d="" id="bdZtQdutR"></path><path d="M630 70C630 103.11 603.11 130 570 130C536.89 130 510 103.11 510 70C510 36.89 536.89 10 570 10C603.11 10 630 36.89 630 70Z" id="bz45MPTD9"></path><path d="M630 570C630 603.11 603.11 630 570 630C536.89 630 510 603.11 510 570C510 536.89 536.89 510 570 510C603.11 510 630 536.89 630 570Z" id="aGexhoDl3"></path><path d="M130 570C130 603.11 103.11 630 70 630C36.89 630 10 603.11 10 570C10 536.89 36.89 510 70 510C103.11 510 130 536.89 130 570Z" id="b4cKRWZH9O"></path></defs><g><g><g><use xlink:href="#a1ODPc8r1" opacity="1" fill="#000000" fill-opacity="1"></use></g><g><g><use xlink:href="#b1nluIKACX" opacity="1" fill-opacity="0" stroke="#000000" stroke-width="40" stroke-opacity="1"></use></g></g><g><g><use xlink:href="#ecGlff8Ra" opacity="1" fill-opacity="0" stroke="#000000" stroke-width="40" stroke-opacity="1"></use></g></g><g><g><use xlink:href="#bdZtQdutR" opacity="1" fill-opacity="0" stroke="#000000" stroke-width="40" stroke-opacity="1"></use></g></g><g><use xlink:href="#bz45MPTD9" opacity="1" fill="#000000" fill-opacity="1"></use></g><g><use xlink:href="#aGexhoDl3" opacity="1" fill="#000000" fill-opacity="1"></use></g><g><use xlink:href="#b4cKRWZH9O" opacity="1" fill="#000000" fill-opacity="1"></use></g></g></g></svg>